<svg width="20" height="20" viewBox="0 0 20 20" fill="none" xmlns="http://www.w3.org/2000/svg">
    <path fill-rule="evenodd" clip-rule="evenodd" d="M2.49955 8.4H4.83435C4.9414 6.54433 5.29473 4.83489 5.83973 3.45874C4.10102 4.52562 2.85016 6.31017 2.49955 8.4ZM9.6 0C4.29807 0 0 4.29807 0 9.6C0 14.9019 4.29807 19.2 9.6 19.2C14.9019 19.2 19.2 14.9019 19.2 9.6C19.2 4.29807 14.9019 0 9.6 0ZM9.6 2.4C9.50874 2.4 9.32144 2.43807 9.04164 2.71421C8.75668 2.99544 8.44501 3.46188 8.15739 4.13301C7.69097 5.22132 7.34989 6.7027 7.23884 8.4H11.9612C11.8501 6.7027 11.509 5.22132 11.0426 4.13301C10.755 3.46188 10.4433 2.99544 10.1584 2.71421C9.87856 2.43807 9.69126 2.4 9.6 2.4ZM14.3656 8.4C14.2586 6.54433 13.9053 4.83489 13.3603 3.45874C15.099 4.52562 16.3498 6.31017 16.7004 8.4H14.3656ZM11.9612 10.8H7.23884C7.34989 12.4973 7.69097 13.9787 8.15739 15.067C8.44501 15.7381 8.75668 16.2046 9.04164 16.4858C9.32144 16.7619 9.50874 16.8 9.6 16.8C9.69126 16.8 9.87856 16.7619 10.1584 16.4858C10.4433 16.2046 10.755 15.7381 11.0426 15.067C11.509 13.9787 11.8501 12.4973 11.9612 10.8ZM13.3603 15.7413C13.9053 14.3651 14.2586 12.6557 14.3656 10.8H16.7004C16.3498 12.8898 15.099 14.6744 13.3603 15.7413ZM5.83973 15.7413C5.29473 14.3651 4.9414 12.6557 4.83435 10.8H2.49955C2.85016 12.8898 4.10102 14.6744 5.83973 15.7413Z" fill="#161616"/>
</svg>
