<svg width="17" height="15" viewBox="0 0 17 15" fill="none" xmlns="http://www.w3.org/2000/svg">
    <path fill-rule="evenodd" clip-rule="evenodd" d="M0 1.2C0 0.537258 0.537258 0 1.2 0H15.6C16.2627 0 16.8 0.537258 16.8 1.2C16.8 1.86274 16.2627 2.4 15.6 2.4H1.2C0.537258 2.4 0 1.86274 0 1.2Z" fill="#161616"/>
    <path fill-rule="evenodd" clip-rule="evenodd" d="M0 7.2C0 6.53726 0.537258 6 1.2 6H15.6C16.2627 6 16.8 6.53726 16.8 7.2C16.8 7.86274 16.2627 8.4 15.6 8.4H1.2C0.537258 8.4 0 7.86274 0 7.2Z" fill="#161616"/>
    <path fill-rule="evenodd" clip-rule="evenodd" d="M0 13.2C0 12.5373 0.537258 12 1.2 12H15.6C16.2627 12 16.8 12.5373 16.8 13.2C16.8 13.8627 16.2627 14.4 15.6 14.4H1.2C0.537258 14.4 0 13.8627 0 13.2Z" fill="#161616"/>
</svg>
