<svg width="24" height="24" viewBox="0 0 24 24" fill="none" xmlns="http://www.w3.org/2000/svg">
    <path d="M11.648 14.444C12.9734 14.444 14.048 13.3695 14.048 12.044C14.048 10.7186 12.9734 9.64404 11.648 9.64404C10.3225 9.64404 9.24796 10.7186 9.24796 12.044C9.24796 13.3695 10.3225 14.444 11.648 14.444Z" fill="#161616"/>
    <path fill-rule="evenodd" clip-rule="evenodd" d="M0.197266 12.0441C1.72637 7.17554 6.27473 3.64404 11.6479 3.64404C17.0211 3.64404 21.5694 7.1755 23.0985 12.044C21.5694 16.9125 17.0211 20.444 11.6479 20.444C6.27473 20.444 1.7264 16.9126 0.197266 12.0441ZM16.448 12.044C16.448 14.695 14.2989 16.844 11.648 16.844C8.99699 16.844 6.84796 14.695 6.84796 12.044C6.84796 9.39308 8.99699 7.24404 11.648 7.24404C14.2989 7.24404 16.448 9.39308 16.448 12.044Z" fill="#161616"/>
    <line x1="21.3476" y1="3.06181" x2="1.69823" y2="20.1956" stroke="#161616" stroke-width="2"/>
</svg>
