<svg width="21" height="21" viewBox="0 0 21 21" fill="none" xmlns="http://www.w3.org/2000/svg">
    <path fill-rule="evenodd" clip-rule="evenodd" d="M0 3.11111C0 1.39289 1.39289 0 3.11111 0H17.6296C19.3479 0 20.7407 1.39289 20.7407 3.11111V17.6296C20.7407 19.3479 19.3479 20.7407 17.6296 20.7407H3.11111C1.39289 20.7407 0 19.3479 0 17.6296V3.11111ZM7.25926 18.6667H17.6296C18.2024 18.6667 18.6667 18.2024 18.6667 17.6296V3.11111C18.6667 2.53837 18.2024 2.07407 17.6296 2.07407H7.25926V18.6667ZM5.18519 2.07407V18.6667H3.11111C2.53837 18.6667 2.07407 18.2024 2.07407 17.6296V3.11111C2.07407 2.53837 2.53837 2.07407 3.11111 2.07407H5.18519ZM15.2518 6.52597C15.6568 6.93095 15.6568 7.58757 15.2518 7.99256L12.874 10.3704L15.2518 12.7482C15.6568 13.1532 15.6568 13.8098 15.2518 14.2148C14.8468 14.6198 14.1902 14.6198 13.7852 14.2148L10.6741 11.1037C10.2691 10.6987 10.2691 10.0421 10.6741 9.63708L13.7852 6.52597C14.1902 6.12098 14.8468 6.12098 15.2518 6.52597Z" fill="black"/>
</svg>
