<svg width="24" height="24" viewBox="0 0 24 24" fill="none" xmlns="http://www.w3.org/2000/svg">
    <path d="M10.7996 2.3999C9.47413 2.3999 8.39961 3.47442 8.39961 4.7999V14.3999C8.39961 15.7254 9.47412 16.7999 10.7996 16.7999H17.9996C19.3251 16.7999 20.3996 15.7254 20.3996 14.3999V7.69696C20.3996 7.06044 20.1468 6.44999 19.6967 5.9999L16.7996 3.10285C16.3495 2.65276 15.7391 2.3999 15.1026 2.3999H10.7996Z" fill="#FF7457"/>
    <path d="M3.59961 9.5999C3.59961 8.27442 4.67413 7.1999 5.99961 7.1999V19.1999H15.5996C15.5996 20.5254 14.5251 21.5999 13.1996 21.5999H5.99961C4.67413 21.5999 3.59961 20.5254 3.59961 19.1999V9.5999Z" fill="#FF7457"/>
</svg>
