<svg width="15" height="15" viewBox="0 0 15 15" fill="none" xmlns="http://www.w3.org/2000/svg">
    <path fill-rule="evenodd" clip-rule="evenodd" d="M0.351472 0.351472C0.820101 -0.117157 1.5799 -0.117157 2.04853 0.351472L7.2 5.50294L12.3515 0.351472C12.8201 -0.117157 13.5799 -0.117157 14.0485 0.351472C14.5172 0.820101 14.5172 1.5799 14.0485 2.04853L8.89706 7.2L14.0485 12.3515C14.5172 12.8201 14.5172 13.5799 14.0485 14.0485C13.5799 14.5172 12.8201 14.5172 12.3515 14.0485L7.2 8.89706L2.04853 14.0485C1.5799 14.5172 0.820101 14.5172 0.351472 14.0485C-0.117157 13.5799 -0.117157 12.8201 0.351472 12.3515L5.50294 7.2L0.351472 2.04853C-0.117157 1.5799 -0.117157 0.820101 0.351472 0.351472Z" fill="#161616"/>
</svg>
