<svg width="17" height="20" viewBox="0 0 17 20" fill="none" xmlns="http://www.w3.org/2000/svg">
    <path d="M7.2 0C5.87452 0 4.8 1.07452 4.8 2.4V12C4.8 13.3255 5.87452 14.4 7.2 14.4H14.4C15.7255 14.4 16.8 13.3255 16.8 12V5.29706C16.8 4.66054 16.5471 4.05009 16.0971 3.6L13.2 0.702944C12.7499 0.252856 12.1395 0 11.5029 0H7.2Z" fill="#161616"/>
    <path d="M0 7.2C0 5.87452 1.07452 4.8 2.4 4.8V16.8H12C12 18.1255 10.9255 19.2 9.6 19.2H2.4C1.07452 19.2 0 18.1255 0 16.8V7.2Z" fill="#161616"/>
</svg>
