<svg width="24" height="24" viewBox="0 0 24 24" fill="none" xmlns="http://www.w3.org/2000/svg">
    <rect width="24" height="24" rx="12" fill="#7289DA"/>
    <path d="M18.0183 7.8901C16.9174 7.00937 15.5963 6.569 14.2018 6.49561L13.9817 6.71579C15.2294 7.00937 16.3303 7.59652 17.3578 8.40386C16.1101 7.74331 14.7156 7.30294 13.2477 7.15616C12.8073 7.08276 12.4404 7.08276 12 7.08276C11.5596 7.08276 11.1927 7.08276 10.7523 7.15616C9.2844 7.30294 7.88991 7.74331 6.6422 8.40386C7.66972 7.59652 8.77064 7.00937 10.0183 6.71579L9.79817 6.49561C8.40367 6.569 7.08257 7.00937 5.98165 7.8901C4.73394 10.2387 4.07339 12.8809 4 15.5965C5.10092 16.7708 6.6422 17.5048 8.25688 17.5048C8.25688 17.5048 8.77064 16.9176 9.13761 16.4039C8.18349 16.1837 7.30275 15.6699 6.7156 14.8626C7.22936 15.1562 7.74312 15.4497 8.25688 15.6699C8.91743 15.9635 9.57798 16.1103 10.2385 16.2571C10.8257 16.3305 11.4128 16.4039 12 16.4039C12.5872 16.4039 13.1743 16.3305 13.7615 16.2571C14.422 16.1103 15.0826 15.9635 15.7431 15.6699C16.2569 15.4497 16.7706 15.1562 17.2844 14.8626C16.6972 15.6699 15.8165 16.1837 14.8624 16.4039C15.2294 16.9176 15.7431 17.5048 15.7431 17.5048C17.3578 17.5048 18.8991 16.7708 20 15.5965C19.9266 12.8809 19.2661 10.2387 18.0183 7.8901ZM9.57798 14.2754C8.84404 14.2754 8.18349 13.6149 8.18349 12.8075C8.18349 12.0002 8.84404 11.3396 9.57798 11.3396C10.3119 11.3396 10.9725 12.0002 10.9725 12.8075C10.9725 13.6149 10.3119 14.2754 9.57798 14.2754ZM14.422 14.2754C13.6881 14.2754 13.0275 13.6149 13.0275 12.8075C13.0275 12.0002 13.6881 11.3396 14.422 11.3396C15.156 11.3396 15.8165 12.0002 15.8165 12.8075C15.8165 13.6149 15.156 14.2754 14.422 14.2754Z" fill="white"/>
</svg>
