<svg width="18" height="18" viewBox="0 0 18 18" fill="none" xmlns="http://www.w3.org/2000/svg">
    <path d="M7.78049 0.829179C8.13971 -0.276394 9.7038 -0.276393 10.063 0.82918L11.3465 4.77934C11.5072 5.27376 11.9679 5.60852 12.4878 5.60852H16.6412C17.8037 5.60852 18.287 7.09606 17.3466 7.77934L13.9864 10.2207C13.5658 10.5262 13.3898 11.0679 13.5504 11.5623L14.8339 15.5125C15.1931 16.618 13.9278 17.5374 12.9873 16.8541L9.6271 14.4128C9.20652 14.1072 8.637 14.1072 8.21642 14.4128L4.85621 16.8541C3.91576 17.5374 2.65038 16.618 3.0096 15.5125L4.29309 11.5623C4.45374 11.0679 4.27775 10.5262 3.85716 10.2207L0.496958 7.77934C-0.443499 7.09606 0.0398323 5.60852 1.2023 5.60852H5.35574C5.87561 5.60852 6.33636 5.27376 6.49701 4.77934L7.78049 0.829179Z" fill="#7E7E7E"/>
</svg>
