<svg width="23" height="17" viewBox="0 0 23 17" fill="none" xmlns="http://www.w3.org/2000/svg">
    <path d="M11.4507 10.8C12.7762 10.8 13.8507 9.72548 13.8507 8.4C13.8507 7.07452 12.7762 6 11.4507 6C10.1252 6 9.05069 7.07452 9.05069 8.4C9.05069 9.72548 10.1252 10.8 11.4507 10.8Z" fill="#161616"/>
    <path fill-rule="evenodd" clip-rule="evenodd" d="M0 8.40005C1.5291 3.53149 6.07746 0 11.4507 0C16.8238 0 21.3721 3.53145 22.9013 8.39996C21.3722 13.2685 16.8238 16.8 11.4506 16.8C6.07747 16.8 1.52913 13.2686 0 8.40005ZM16.2507 8.4C16.2507 11.051 14.1017 13.2 11.4507 13.2C8.79973 13.2 6.65069 11.051 6.65069 8.4C6.65069 5.74903 8.79973 3.6 11.4507 3.6C14.1017 3.6 16.2507 5.74903 16.2507 8.4Z" fill="#161616"/>
</svg>
