<svg width="20" height="20" viewBox="0 0 20 20" fill="none" xmlns="http://www.w3.org/2000/svg">
    <g clip-path="url(#clip0_9769_2623)">
        <path d="M17.6741 4.01521C16.9576 2.74141 15.6838 2.0249 14.2508 2.0249H4.77679C3.34376 2.0249 2.06993 2.74141 1.35341 4.01521C0.477675 5.60746 0 7.35898 0 9.19007C0 13.5688 1.75148 17.1514 3.98066 17.1514C5.17485 17.1514 6.13024 16.0368 6.84675 13.728C6.92636 13.4096 7.24481 13.1707 7.64288 13.1707H11.5439C11.8624 13.1707 12.1808 13.4096 12.3401 13.728C13.0566 16.0368 14.0119 17.1514 15.2061 17.1514C17.4353 17.1514 19.1868 13.5688 19.1868 9.19007C19.0276 7.35894 18.5499 5.60746 17.6741 4.01521ZM7.1652 8.39394H6.36908V9.19007C6.36908 9.66774 6.05063 9.98619 5.57295 9.98619C5.09528 9.98619 4.77683 9.66774 4.77683 9.19007V8.39394H3.9807C3.50303 8.39394 3.18458 8.07549 3.18458 7.59782C3.18458 7.12014 3.50303 6.80169 3.9807 6.80169H4.77683V6.00557C4.77683 5.52789 5.09528 5.20944 5.57295 5.20944C6.05063 5.20944 6.36908 5.52789 6.36908 6.00557V6.80169H7.1652C7.64288 6.80169 7.96133 7.12014 7.96133 7.59782C7.96133 8.07549 7.64288 8.39394 7.1652 8.39394ZM12.4197 9.98619C11.7828 9.98619 11.2255 9.4289 11.2255 8.792C11.2255 8.1551 11.7828 7.59782 12.4197 7.59782C13.0566 7.59782 13.6139 8.1551 13.6139 8.792C13.6139 9.4289 12.977 9.98619 12.4197 9.98619ZM14.7285 7.59782C14.1712 7.59782 13.5343 7.04053 13.5343 6.40363C13.5343 5.76673 14.1712 5.20944 14.7285 5.20944C15.2858 5.20944 15.9227 5.76673 15.9227 6.40363C15.9227 7.04053 15.3654 7.59782 14.7285 7.59782Z" fill="#161616"/>
    </g>
    <defs>
        <clipPath id="clip0_9769_2623">
            <rect width="19.2" height="19.2" fill="white"/>
        </clipPath>
    </defs>
</svg>
