<svg width="20" height="20" viewBox="0 0 20 20" fill="none" xmlns="http://www.w3.org/2000/svg">
    <path fill-rule="evenodd" clip-rule="evenodd" d="M19.2 9.6C19.2 14.9019 14.9019 19.2 9.6 19.2C4.29807 19.2 0 14.9019 0 9.6C0 4.29807 4.29807 0 9.6 0C14.9019 0 19.2 4.29807 19.2 9.6ZM9.60002 6C9.15736 6 8.76912 6.23906 8.55982 6.60087C8.22797 7.17454 7.4939 7.37058 6.92022 7.03873C6.34655 6.70687 6.15051 5.9728 6.48237 5.39913C7.10301 4.32622 8.266 3.6 9.60002 3.6C11.5882 3.6 13.2 5.21177 13.2 7.2C13.2 8.76746 12.1982 10.1009 10.8 10.5952V10.8C10.8 11.4627 10.2628 12 9.60002 12C8.93727 12 8.40002 11.4627 8.40002 10.8V9.6C8.40002 8.93726 8.93727 8.4 9.60002 8.4C10.2628 8.4 10.8 7.86274 10.8 7.2C10.8 6.53726 10.2628 6 9.60002 6ZM9.6 15.6C10.2627 15.6 10.8 15.0627 10.8 14.4C10.8 13.7373 10.2627 13.2 9.6 13.2C8.93726 13.2 8.4 13.7373 8.4 14.4C8.4 15.0627 8.93726 15.6 9.6 15.6Z" fill="#161616"/>
</svg>
