<svg width="23" height="23" viewBox="0 0 23 23" fill="none" xmlns="http://www.w3.org/2000/svg">
    <circle cx="11.1478" cy="11.1478" r="11.1478" fill="#DDDDDD"/>
    <path fill-rule="evenodd" clip-rule="evenodd" d="M6.19779 6.34517C6.58832 5.95465 7.22148 5.95465 7.61201 6.34517L11.1475 9.88071L14.6831 6.34518C15.0736 5.95465 15.7068 5.95465 16.0973 6.34518C16.4878 6.7357 16.4878 7.36886 16.0973 7.75939L12.5618 11.2949L16.0973 14.8305C16.4878 15.221 16.4878 15.8541 16.0973 16.2447C15.7068 16.6352 15.0736 16.6352 14.6831 16.2447L11.1475 12.7091L7.61201 16.2447C7.22148 16.6352 6.58832 16.6352 6.19779 16.2447C5.80727 15.8541 5.80727 15.221 6.19779 14.8305L9.73333 11.2949L6.19779 7.75939C5.80727 7.36886 5.80727 6.7357 6.19779 6.34517Z" fill="#7E7E7E"/>
</svg>
