<svg width="21" height="21" viewBox="0 0 21 21" fill="none" xmlns="http://www.w3.org/2000/svg">
    <path fill-rule="evenodd" clip-rule="evenodd" d="M0 3.11111C0 1.39289 1.39289 0 3.11111 0H17.6296C19.3479 0 20.7407 1.39289 20.7407 3.11111V17.6296C20.7407 19.3479 19.3479 20.7407 17.6296 20.7407H3.11111C1.39289 20.7407 0 19.3479 0 17.6296V3.11111ZM7.25926 18.6667H17.6296C18.2024 18.6667 18.6667 18.2024 18.6667 17.6296V3.11111C18.6667 2.53837 18.2024 2.07407 17.6296 2.07407H7.25926V18.6667ZM5.18519 2.07407V18.6667H3.11111C2.53837 18.6667 2.07407 18.2024 2.07407 17.6296V3.11111C2.07407 2.53837 2.53837 2.07407 3.11111 2.07407H5.18519ZM10.6741 6.52597C11.0791 6.12098 11.7357 6.12098 12.1407 6.52597L15.2518 9.63708C15.6568 10.0421 15.6568 10.6987 15.2518 11.1037L12.1407 14.2148C11.7357 14.6198 11.0791 14.6198 10.6741 14.2148C10.2691 13.8098 10.2691 13.1532 10.6741 12.7482L13.0519 10.3704L10.6741 7.99256C10.2691 7.58757 10.2691 6.93095 10.6741 6.52597Z" fill="black"/>
</svg>
