<svg width="20" height="20" viewBox="0 0 20 20" fill="none" xmlns="http://www.w3.org/2000/svg">
    <path d="M19.3899 5.60843L14.4388 0.655765C14.0885 0.293035 13.6219 0.0651474 13.1206 0.0119782C12.6193 -0.0411911 12.1153 0.0837436 11.6968 0.364922C11.4501 0.540543 11.2446 0.767922 11.0947 1.0312C10.9447 1.29448 10.854 1.58732 10.8288 1.8893C10.8036 2.19127 10.8445 2.49512 10.9487 2.77965C11.0529 3.06417 11.2178 3.32253 11.432 3.5367L11.925 4.02921C12.0506 4.15568 12.1211 4.32675 12.1211 4.50506C12.1211 4.68337 12.0506 4.85444 11.925 4.98091L10.1764 6.73097C10.0229 6.88388 9.83249 6.99442 9.62368 7.05181C9.41486 7.10921 9.19476 7.1115 8.98479 7.05848L8.302 6.88348C7.5146 6.67777 6.69658 6.61595 5.88725 6.70097C5.35537 6.75633 4.85039 6.96273 4.43185 7.29584C4.0133 7.62894 3.69864 8.07486 3.52495 8.58104C3.33471 9.10425 3.29766 9.67095 3.41817 10.2145C3.53868 10.7581 3.81174 11.2559 4.20524 11.6495L5.65909 13.1562L0.254206 18.5672C0.174677 18.6441 0.111242 18.736 0.0676022 18.8377C0.0239625 18.9394 0.000992192 19.0487 3.14391e-05 19.1594C-0.000929314 19.2701 0.0201388 19.3798 0.0620064 19.4822C0.103874 19.5846 0.165703 19.6777 0.243885 19.7559C0.322067 19.8342 0.415036 19.896 0.517369 19.9379C0.619702 19.9798 0.729348 20.0009 0.83991 20C0.950472 19.999 1.05974 19.976 1.16132 19.9323C1.26291 19.8887 1.3548 19.8252 1.43161 19.7456L6.81651 14.3562L7.85735 15.4346C8.56295 16.1838 9.53619 16.6231 10.5644 16.6563C10.8968 16.6567 11.2268 16.6003 11.5403 16.4896C12.0186 16.3244 12.4389 16.0239 12.7501 15.6246C13.0614 15.2252 13.2502 14.7441 13.2939 14.2396C13.3781 13.437 13.3178 12.6257 13.1157 11.8445L12.9392 10.9895C12.8897 10.7809 12.8943 10.5632 12.9526 10.3569C13.0109 10.1507 13.1209 9.96276 13.2722 9.81108L15.0117 8.07269C15.147 7.94846 15.322 7.8764 15.5055 7.86935C15.586 7.86918 15.6658 7.88509 15.7402 7.91614C15.8145 7.94719 15.8819 7.99276 15.9385 8.05019L16.3598 8.47187C16.7083 8.84428 17.178 9.08021 17.6847 9.13733C18.1913 9.19445 18.7017 9.06902 19.1243 8.78354C19.3711 8.60799 19.5766 8.38066 19.7266 8.11742C19.8766 7.85417 19.9674 7.56135 19.9927 7.25937C20.018 6.95738 19.9772 6.65352 19.8731 6.36896C19.7689 6.08439 19.6041 5.82599 19.3899 5.61177V5.60843Z" fill="#161616"/>
</svg>
