<svg width="24" height="24" viewBox="0 0 24 24" fill="none" xmlns="http://www.w3.org/2000/svg">
    <rect width="24" height="24" rx="8" fill="#7E7E7E"/>
    <path d="M12 5.90625C12 5.1296 12.6296 4.5 13.4062 4.5C14.1829 4.5 14.8125 5.1296 14.8125 5.90625V6.375C14.8125 6.89277 15.2322 7.3125 15.75 7.3125H18.5625C19.0803 7.3125 19.5 7.73223 19.5 8.25V11.0625C19.5 11.5803 19.0803 12 18.5625 12H18.0938C17.3171 12 16.6875 12.6296 16.6875 13.4062C16.6875 14.1829 17.3171 14.8125 18.0938 14.8125H18.5625C19.0803 14.8125 19.5 15.2322 19.5 15.75V18.5625C19.5 19.0803 19.0803 19.5 18.5625 19.5H15.75C15.2322 19.5 14.8125 19.0803 14.8125 18.5625V18.0938C14.8125 17.3171 14.1829 16.6875 13.4062 16.6875C12.6296 16.6875 12 17.3171 12 18.0938V18.5625C12 19.0803 11.5803 19.5 11.0625 19.5H8.25C7.73223 19.5 7.3125 19.0803 7.3125 18.5625V15.75C7.3125 15.2322 6.89277 14.8125 6.375 14.8125H5.90625C5.1296 14.8125 4.5 14.1829 4.5 13.4062C4.5 12.6296 5.1296 12 5.90625 12H6.375C6.89277 12 7.3125 11.5803 7.3125 11.0625V8.25C7.3125 7.73223 7.73223 7.3125 8.25 7.3125H11.0625C11.5803 7.3125 12 6.89277 12 6.375V5.90625Z" fill="#F5F5F5"/>
</svg>
