<svg width="22" height="22" viewBox="0 0 22 22" fill="none" xmlns="http://www.w3.org/2000/svg">
    <path fill-rule="evenodd" clip-rule="evenodd" d="M0.527208 0.527208C1.23015 -0.175736 2.36985 -0.175736 3.07279 0.527208L10.8 8.25442L18.5272 0.527208C19.2302 -0.175736 20.3699 -0.175736 21.0728 0.527208C21.7757 1.23015 21.7757 2.36985 21.0728 3.07279L13.3456 10.8L21.0728 18.5272C21.7757 19.2302 21.7757 20.3699 21.0728 21.0728C20.3699 21.7757 19.2302 21.7757 18.5272 21.0728L10.8 13.3456L3.07279 21.0728C2.36985 21.7757 1.23015 21.7757 0.527208 21.0728C-0.175736 20.3699 -0.175736 19.2302 0.527208 18.5272L8.25442 10.8L0.527208 3.07279C-0.175736 2.36985 -0.175736 1.23015 0.527208 0.527208Z" fill="#FF7457"/>
</svg>
