<svg width="20" height="20" viewBox="0 0 20 20" fill="none" xmlns="http://www.w3.org/2000/svg">
    <path fill-rule="evenodd" clip-rule="evenodd" d="M11.3871 1.40513C10.9322 -0.468376 8.26776 -0.468377 7.81294 1.40513C7.51912 2.61539 6.13254 3.18973 5.069 2.54171C3.42262 1.53855 1.53855 3.42262 2.54171 5.069C3.18973 6.13254 2.61539 7.51912 1.40513 7.81293C-0.468377 8.26776 -0.468376 10.9322 1.40513 11.3871C2.61539 11.6809 3.18973 13.0675 2.54171 14.131C1.53855 15.7774 3.42262 17.6615 5.069 16.6583C6.13254 16.0103 7.51912 16.5846 7.81294 17.7949C8.26776 19.6684 10.9322 19.6684 11.3871 17.7949C11.6809 16.5846 13.0675 16.0103 14.131 16.6583C15.7774 17.6615 17.6615 15.7774 16.6583 14.131C16.0103 13.0675 16.5846 11.6809 17.7949 11.3871C19.6684 10.9322 19.6684 8.26776 17.7949 7.81293C16.5846 7.51912 16.0103 6.13254 16.6583 5.069C17.6615 3.42262 15.7774 1.53855 14.131 2.54171C13.0675 3.18973 11.6809 2.61539 11.3871 1.40513ZM9.6 13.2C11.5882 13.2 13.2 11.5882 13.2 9.6C13.2 7.61177 11.5882 6 9.6 6C7.61177 6 6 7.61177 6 9.6C6 11.5882 7.61177 13.2 9.6 13.2Z" fill="#161616"/>
</svg>
