<svg width="20" height="17" viewBox="0 0 20 17" fill="none" xmlns="http://www.w3.org/2000/svg">
    <path d="M1.2 0C0.537258 0 0 0.537259 0 1.2V15.6C0 16.2627 0.537258 16.8 1.2 16.8C1.86274 16.8 2.4 16.2627 2.4 15.6V1.2C2.4 0.537258 1.86274 0 1.2 0Z" fill="#161616"/>
    <path d="M13.5515 11.1515C13.0828 11.6201 13.0828 12.3799 13.5515 12.8485C14.0201 13.3172 14.7799 13.3172 15.2485 12.8485L18.8485 9.24853C19.0736 9.02349 19.2 8.71826 19.2 8.4C19.2 8.08174 19.0736 7.77652 18.8485 7.55147L15.2485 3.95147C14.7799 3.48284 14.0201 3.48284 13.5515 3.95147C13.0828 4.4201 13.0828 5.1799 13.5515 5.64853L15.1029 7.2L6 7.2C5.33726 7.2 4.8 7.73726 4.8 8.4C4.8 9.06274 5.33726 9.6 6 9.6H15.1029L13.5515 11.1515Z" fill="#161616"/>
</svg>
