<svg width="17" height="20" viewBox="0 0 17 20" fill="none" xmlns="http://www.w3.org/2000/svg">
    <path fill-rule="evenodd" clip-rule="evenodd" d="M0 18C-2.89694e-08 17.3373 0.537258 16.8 1.2 16.8H15.6C16.2627 16.8 16.8 17.3373 16.8 18C16.8 18.6627 16.2627 19.2 15.6 19.2H1.2C0.537258 19.2 2.89694e-08 18.6627 0 18ZM3.95147 5.64853C3.48284 5.1799 3.48284 4.4201 3.95147 3.95147L7.55147 0.351472C7.77652 0.126429 8.08174 1.39116e-08 8.4 0C8.71826 -1.39116e-08 9.02348 0.126429 9.24853 0.351472L12.8485 3.95147C13.3172 4.4201 13.3172 5.1799 12.8485 5.64853C12.3799 6.11716 11.6201 6.11716 11.1515 5.64853L9.6 4.09706L9.6 13.2C9.6 13.8627 9.06274 14.4 8.4 14.4C7.73726 14.4 7.2 13.8627 7.2 13.2L7.2 4.09706L5.64853 5.64853C5.1799 6.11716 4.4201 6.11716 3.95147 5.64853Z" fill="#FF7457"/>
</svg>
