<svg width="24" height="24" viewBox="0 0 24 24" fill="none" xmlns="http://www.w3.org/2000/svg">
    <rect width="24" height="24" rx="8" fill="#FFED8E"/>
    <path d="M11.0406 5.51443C11.3426 4.58503 12.6574 4.58504 12.9594 5.51443L14.0383 8.83509C14.1734 9.25073 14.5607 9.53213 14.9977 9.53213H18.4893C19.4665 9.53213 19.8728 10.7826 19.0822 11.357L16.2575 13.4093C15.904 13.6662 15.756 14.1215 15.8911 14.5371L16.97 17.8578C17.272 18.7872 16.2083 19.56 15.4177 18.9856L12.5929 16.9334C12.2394 16.6765 11.7606 16.6765 11.4071 16.9334L8.58233 18.9856C7.79175 19.56 6.72802 18.7872 7.03 17.8578L8.10895 14.5371C8.24399 14.1215 8.09605 13.6662 7.74249 13.4093L4.91776 11.357C4.12718 10.7826 4.53348 9.53213 5.5107 9.53213H9.00226C9.43928 9.53213 9.82661 9.25073 9.96165 8.83509L11.0406 5.51443Z" fill="#4F1F0E"/>
</svg>
